<svg xmlns="http://www.w3.org/2000/svg" viewBox="0 0 470 231.29"><defs><style>.cls-1{fill:#fff;}.cls-2{fill:#ffb300;}.cls-3{fill:#f8b114;}</style></defs><title>mining-services-pitnportal-ham</title><g id="banner-no-tag-dark-on-light-Y-accent"><g id="pnp"><path class="cls-1" d="M414.25,63.22a40.37,40.37,0,0,1-3.71,17.48,36.31,36.31,0,0,1-10.88,13.35,54,54,0,0,1-17.45,8.61,81.57,81.57,0,0,1-23.45,3.1h-59V140H265V76.31h97.14q8.08,0,12.56-3.62a11.76,11.76,0,0,0,4.47-9.64,11.55,11.55,0,0,0-4.47-9.56Q370.23,50,362.14,50H265V20h93.93a79,79,0,0,1,23.44,3.19,52.07,52.07,0,0,1,17.37,8.86,37.93,37.93,0,0,1,10.8,13.61A40.92,40.92,0,0,1,414.25,63.22Z" transform="translate(-265 -20)"/><path class="cls-1" d="M560.83,117.3c2.72,3.1,1.62,9.19.41,11.78a19.11,19.11,0,0,1-4.56,6.31,15.14,15.14,0,0,1-6.29,3.37,22.52,22.52,0,0,1-7.21.72,17.93,17.93,0,0,1-13.43-6.83L466.51,68.5v71.32H437.14L436.9,39.66a25.75,25.75,0,0,1,2.15-9.37,18.24,18.24,0,0,1,4.55-6.23,15.88,15.88,0,0,1,6.2-3.29,21.9,21.9,0,0,1,7.13-.73,20.06,20.06,0,0,1,6.34,1.48,22.08,22.08,0,0,1,7.09,5.35l90.47,90.43" transform="translate(-265 -20)"/><path class="cls-1" d="M735,63.22a40.37,40.37,0,0,1-3.71,17.48,36.21,36.21,0,0,1-10.88,13.35A53.93,53.93,0,0,1,703,102.66a81.5,81.5,0,0,1-23.44,3.1h-59V140H585.75V76.31h97.14q8.1,0,12.56-3.62a11.76,11.76,0,0,0,4.47-9.64,11.55,11.55,0,0,0-4.47-9.56Q691,50,682.89,50H585.75V20h93.94a79,79,0,0,1,23.44,3.19,52.16,52.16,0,0,1,17.37,8.86,37.9,37.9,0,0,1,10.79,13.61A40.92,40.92,0,0,1,735,63.22Z" transform="translate(-265 -20)"/><polyline class="cls-2" points="242.45 0 297.52 0 297.52 56.23"/></g></g><g id="TAGline_" data-name="TAGline]"><g id="pitnportal_outline" data-name="pitnportal outline"><path class="cls-1" d="M309.45,175.68a14.91,14.91,0,0,1-1.1,5.82,11.88,11.88,0,0,1-3.24,4.45,15.35,15.35,0,0,1-5.2,2.87,21.75,21.75,0,0,1-7,1H275.35v9.82H265V180h28.93a5.33,5.33,0,0,0,3.74-1.21,4.11,4.11,0,0,0,1.34-3.21,4.05,4.05,0,0,0-1.34-3.19,5.46,5.46,0,0,0-3.74-1.18H265v-10h28a21.19,21.19,0,0,1,7,1.07,14.83,14.83,0,0,1,5.17,2.95,12.6,12.6,0,0,1,3.22,4.54A15.14,15.14,0,0,1,309.45,175.68Z" transform="translate(-265 -20)"/><path class="cls-1" d="M325.28,199.68h-10.4V161.26h10.4Z" transform="translate(-265 -20)"/><path class="cls-1" d="M370.5,161.26v10H354.76v28.43h-10.4V171.25H328.59v-10Z" transform="translate(-265 -20)"/><path class="cls-1" d="M425.89,200.31a5.57,5.57,0,0,1-2-.38,6.21,6.21,0,0,1-2.18-1.69l-20.6-21.13v22.57h-9.44V167.81a9.93,9.93,0,0,1,.48-3.27,6.24,6.24,0,0,1,1.25-2.24,4.7,4.7,0,0,1,1.81-1.27,6,6,0,0,1,2.14-.4,5.59,5.59,0,0,1,1.93.37,6.75,6.75,0,0,1,2.24,1.7l20.59,21.13V161.26h9.49v31.81a10,10,0,0,1-.48,3.28,6.61,6.61,0,0,1-1.25,2.26,4.45,4.45,0,0,1-1.83,1.29A6,6,0,0,1,425.89,200.31Z" transform="translate(-265 -20)"/><path class="cls-1" d="M497.26,175.68a14.91,14.91,0,0,1-1.1,5.82,11.88,11.88,0,0,1-3.24,4.45,15.45,15.45,0,0,1-5.2,2.87,21.75,21.75,0,0,1-7,1H463.16v9.82H452.81V180h28.93a5.33,5.33,0,0,0,3.74-1.21,4.1,4.1,0,0,0,1.33-3.21,4,4,0,0,0-1.33-3.19,5.46,5.46,0,0,0-3.74-1.18H452.81v-10h28a21.19,21.19,0,0,1,7,1.07,14.83,14.83,0,0,1,5.17,2.95,12.6,12.6,0,0,1,3.22,4.54A15.14,15.14,0,0,1,497.26,175.68Z" transform="translate(-265 -20)"/><path class="cls-1" d="M526,160.63q12.26,0,18.41,4.77t6.16,15q0,10.34-6.13,15.1T526,200.31q-12.35,0-18.46-4.77t-6.1-15.1q0-10.27,6.13-15T526,160.63Zm0,29.69a49.33,49.33,0,0,0,6.63-.38,10.7,10.7,0,0,0,4.4-1.46,6.16,6.16,0,0,0,2.43-3,17,17,0,0,0,0-10,6,6,0,0,0-2.43-3,10.86,10.86,0,0,0-4.4-1.43,58,58,0,0,0-13.26,0,10.81,10.81,0,0,0-4.39,1.43,6,6,0,0,0-2.44,3,17.18,17.18,0,0,0,0,10,6.13,6.13,0,0,0,2.44,3,10.66,10.66,0,0,0,4.39,1.46A49.44,49.44,0,0,0,526,190.32Z" transform="translate(-265 -20)"/><path class="cls-1" d="M603.55,199.68H589.63l-7.48-10.17h-16v10.17h-10.4V180H585a6.93,6.93,0,0,0,4.07-1.15,3.63,3.63,0,0,0,1.66-3.16,3.91,3.91,0,0,0-1.51-3.36,7,7,0,0,0-4.22-1.12H555.78v-10h28.38a30.16,30.16,0,0,1,5.93.61,16.61,16.61,0,0,1,5.57,2.15,12.6,12.6,0,0,1,4.15,4.19,12.79,12.79,0,0,1,1.63,6.78,14.68,14.68,0,0,1-.6,4.24,12.39,12.39,0,0,1-1.74,3.62,10.85,10.85,0,0,1-2.76,2.73,10.53,10.53,0,0,1-3.69,1.58c.57.5,1.2,1.13,1.91,1.89s1.64,1.82,2.81,3.16Z" transform="translate(-265 -20)"/><path class="cls-3" d="M655.79,199.68l6.28-9.88h11.57c1.09,0,2,0,2.84.11-.47-.68-1-1.55-1.63-2.61s-1.22-2-1.78-3l-6-10.16-15.77,25.5H639l21.55-34.74a12.51,12.51,0,0,1,2.66-3,6.91,6.91,0,0,1,8-.08,11,11,0,0,1,2.69,3.07l21,34.74Z" transform="translate(-265 -20)"/><path class="cls-1" d="M735,189.8v9.88H698.58V161.26H709V189.8Z" transform="translate(-265 -20)"/><path class="cls-1" d="M645.85,161.26v10H630.11v28.43h-10.4V171.25H603.94l0-10Z" transform="translate(-265 -20)"/></g><path class="cls-1" d="M287.47,221.68v23.06h-2.19V226.29l-8.5,15.51H275.7l-8.51-15.41v18.35H265V221.68h1.89l9.39,17.09,9.31-17.09Z" transform="translate(-265 -20)"/><path class="cls-1" d="M294,223.12a1.65,1.65,0,0,1-.47-1.18,1.63,1.63,0,0,1,.47-1.15,1.49,1.49,0,0,1,1.14-.5,1.53,1.53,0,0,1,1.14.48,1.59,1.59,0,0,1,.47,1.14,1.68,1.68,0,0,1-.47,1.21,1.51,1.51,0,0,1-1.14.5A1.49,1.49,0,0,1,294,223.12Zm0,4.29h2.19v17.33h-2.19Z" transform="translate(-265 -20)"/><path class="cls-1" d="M315.52,229.17a7.67,7.67,0,0,1,1.81,5.52v10.05h-2.19v-9.82a6,6,0,0,0-1.27-4.12,4.61,4.61,0,0,0-3.62-1.42,5.36,5.36,0,0,0-4.15,1.67,6.53,6.53,0,0,0-1.53,4.59v9.1h-2.2V227.41h2.1v3.19a6.31,6.31,0,0,1,2.49-2.45,7.57,7.57,0,0,1,3.69-.88A6.42,6.42,0,0,1,315.52,229.17Z" transform="translate(-265 -20)"/><path class="cls-1" d="M323.27,223.12a1.65,1.65,0,0,1-.47-1.18,1.63,1.63,0,0,1,.47-1.15,1.51,1.51,0,0,1,1.14-.5,1.53,1.53,0,0,1,1.14.48,1.59,1.59,0,0,1,.47,1.14,1.68,1.68,0,0,1-.47,1.21,1.55,1.55,0,0,1-2.28,0Zm0,4.29h2.19v17.33H323.3Z" transform="translate(-265 -20)"/><path class="cls-1" d="M344.77,229.17a7.71,7.71,0,0,1,1.8,5.52v10.05h-2.19v-9.82a6,6,0,0,0-1.27-4.12,4.6,4.6,0,0,0-3.61-1.42,5.36,5.36,0,0,0-4.16,1.67,6.53,6.53,0,0,0-1.53,4.59v9.1h-2.2V227.41h2.11v3.19a6.22,6.22,0,0,1,2.48-2.45,7.61,7.61,0,0,1,3.7-.88A6.44,6.44,0,0,1,344.77,229.17Z" transform="translate(-265 -20)"/><path class="cls-1" d="M367.66,227.41v15.22q0,4.41-2,6.54t-6.1,2.12a12.7,12.7,0,0,1-4.29-.71,8.61,8.61,0,0,1-3.29-2l1.12-1.78a8.2,8.2,0,0,0,2.85,1.75,10.08,10.08,0,0,0,3.54.63,6,6,0,0,0,4.55-1.54,6.7,6.7,0,0,0,1.45-4.76v-2.2a6.81,6.81,0,0,1-2.67,2.5,7.91,7.91,0,0,1-3.67.86A8.22,8.22,0,0,1,355,243a7.71,7.71,0,0,1-2.94-3,9.42,9.42,0,0,1,0-8.72,7.56,7.56,0,0,1,2.92-3,8.34,8.34,0,0,1,4.17-1.06,7.86,7.86,0,0,1,3.74.89,6.91,6.91,0,0,1,2.69,2.57v-3.32Zm-5.14,13.78a5.57,5.57,0,0,0,2.21-2.25,6.77,6.77,0,0,0,.79-3.3,6.66,6.66,0,0,0-.79-3.28,5.68,5.68,0,0,0-2.19-2.24,6.78,6.78,0,0,0-6.37,0,5.49,5.49,0,0,0-2.19,2.24,7.27,7.27,0,0,0,0,6.59,5.58,5.58,0,0,0,2.19,2.25,6.63,6.63,0,0,0,6.35,0Z" transform="translate(-265 -20)"/><path class="cls-1" d="M397.86,245.1l-3-3.3a9.17,9.17,0,0,1-7.24,3.13,9,9,0,0,1-3.75-.74,6,6,0,0,1-2.58-2.07,5.21,5.21,0,0,1-.93-3.05,6,6,0,0,1,1.24-3.72,15,15,0,0,1,4.2-3.46,13.56,13.56,0,0,1-2.13-2.92,5.75,5.75,0,0,1-.59-2.55,4.58,4.58,0,0,1,1.48-3.56,5.71,5.71,0,0,1,4-1.35,5.32,5.32,0,0,1,3.68,1.22,4.26,4.26,0,0,1,1.36,3.36,4.84,4.84,0,0,1-1.08,3.08,14.62,14.62,0,0,1-3.74,3l5.93,6.53a15.21,15.21,0,0,0,1.45-4.45l1.8.59a15.85,15.85,0,0,1-1.92,5.31l3.09,3.39Zm-4.3-4.71L387,233.24a13.12,13.12,0,0,0-3.54,2.8,4.44,4.44,0,0,0-1,2.8,3.63,3.63,0,0,0,1.44,3,5.92,5.92,0,0,0,3.79,1.14A7.3,7.3,0,0,0,393.56,240.39ZM386,224.11a3,3,0,0,0-.91,2.28,4,4,0,0,0,.49,1.94,13.93,13.93,0,0,0,1.95,2.5,14.87,14.87,0,0,0,3.25-2.47,3.34,3.34,0,0,0,.89-2.24,2.7,2.7,0,0,0-.83-2.09,3.27,3.27,0,0,0-2.32-.77A3.54,3.54,0,0,0,386,224.11Z" transform="translate(-265 -20)"/><path class="cls-1" d="M426.45,242.63v2.11h-15.3V221.68H426v2.1H413.43V232h11.19v2.07H413.43v8.57Z" transform="translate(-265 -20)"/><path class="cls-1" d="M446,227.41v23.72h-2.19v-9.66a7,7,0,0,1-2.61,2.56,7.37,7.37,0,0,1-3.57.87,8,8,0,0,1-4.16-1.1,7.72,7.72,0,0,1-2.89-3.12,10.58,10.58,0,0,1,0-9.19,7.65,7.65,0,0,1,2.9-3.11,7.93,7.93,0,0,1,4.15-1.11,7.22,7.22,0,0,1,3.66.93,6.94,6.94,0,0,1,2.61,2.63v-3.42ZM440.84,242A5.81,5.81,0,0,0,443,239.6a7.64,7.64,0,0,0,.79-3.53,7.5,7.5,0,0,0-.79-3.51,6,6,0,0,0-2.16-2.39,6.06,6.06,0,0,0-6.19,0,6.1,6.1,0,0,0-2.16,2.39,7.63,7.63,0,0,0-.79,3.51,7.77,7.77,0,0,0,.79,3.53,5.94,5.94,0,0,0,8.35,2.38Z" transform="translate(-265 -20)"/><path class="cls-1" d="M466.72,227.41v17.33h-2.1v-3.17a6.2,6.2,0,0,1-2.38,2.46,6.81,6.81,0,0,1-3.46.87,6.67,6.67,0,0,1-5-1.89,7.68,7.68,0,0,1-1.84-5.56v-10h2.19v9.81a6,6,0,0,0,1.27,4.16,4.61,4.61,0,0,0,3.62,1.41,5.15,5.15,0,0,0,4.05-1.66,6.76,6.76,0,0,0,1.48-4.63v-9.09Z" transform="translate(-265 -20)"/><path class="cls-1" d="M472.85,223.12a1.65,1.65,0,0,1-.47-1.18,1.63,1.63,0,0,1,.47-1.15,1.49,1.49,0,0,1,1.14-.5,1.53,1.53,0,0,1,1.14.48,1.59,1.59,0,0,1,.47,1.14,1.68,1.68,0,0,1-.47,1.21,1.51,1.51,0,0,1-1.14.5A1.49,1.49,0,0,1,472.85,223.12Zm0,4.29h2.19v17.33h-2.19Z" transform="translate(-265 -20)"/><path class="cls-1" d="M493.71,228.38a7.67,7.67,0,0,1,2.91,3.11,10.58,10.58,0,0,1,0,9.19,7.81,7.81,0,0,1-2.9,3.12,8,8,0,0,1-4.15,1.1A7.31,7.31,0,0,1,486,244a7,7,0,0,1-2.62-2.56v9.66h-2.19V227.41h2.1v3.42a6.94,6.94,0,0,1,2.61-2.63,7.28,7.28,0,0,1,3.67-.93A7.92,7.92,0,0,1,493.71,228.38ZM492.5,242a5.72,5.72,0,0,0,2.18-2.38,7.64,7.64,0,0,0,.79-3.53,7.5,7.5,0,0,0-.79-3.51,5.93,5.93,0,0,0-2.18-2.39,6.06,6.06,0,0,0-6.19,0,6.05,6.05,0,0,0-2.17,2.39,7.63,7.63,0,0,0-.79,3.51,7.77,7.77,0,0,0,.79,3.53A6,6,0,0,0,492.5,242Z" transform="translate(-265 -20)"/><path class="cls-1" d="M527.23,229.15a7.85,7.85,0,0,1,1.75,5.54v10.05h-2.2v-9.82a6.11,6.11,0,0,0-1.22-4.12,4.31,4.31,0,0,0-3.44-1.42,5,5,0,0,0-4,1.67,6.74,6.74,0,0,0-1.45,4.59v9.1h-2.2v-9.82a6.16,6.16,0,0,0-1.22-4.12,4.35,4.35,0,0,0-3.48-1.42,5,5,0,0,0-4,1.67,6.7,6.7,0,0,0-1.47,4.59v9.1h-2.19V227.41h2.1v3.16a6.09,6.09,0,0,1,2.41-2.44,7.24,7.24,0,0,1,3.56-.86,6.58,6.58,0,0,1,3.54.93,5.61,5.61,0,0,1,2.24,2.73,6.47,6.47,0,0,1,2.58-2.68,7.52,7.52,0,0,1,3.85-1A6.23,6.23,0,0,1,527.23,229.15Z" transform="translate(-265 -20)"/><path class="cls-1" d="M549.16,236.8h-13.6a6.4,6.4,0,0,0,2,4.36,6.24,6.24,0,0,0,4.45,1.67,6.68,6.68,0,0,0,2.78-.58,6.13,6.13,0,0,0,2.2-1.7l1.24,1.52a7.2,7.2,0,0,1-2.71,2.11,8.69,8.69,0,0,1-3.57.72,8.58,8.58,0,0,1-4.44-1.14,7.91,7.91,0,0,1-3-3.14,9.47,9.47,0,0,1-1.08-4.55,9.76,9.76,0,0,1,1-4.54,7.72,7.72,0,0,1,2.85-3.13,7.52,7.52,0,0,1,4.06-1.13,7.44,7.44,0,0,1,4.05,1.13,7.73,7.73,0,0,1,2.82,3.11,9.87,9.87,0,0,1,1,4.56Zm-11.79-5.92a6.52,6.52,0,0,0-1.81,4.17h11.53a6.42,6.42,0,0,0-1.81-4.17,5.71,5.71,0,0,0-7.91,0Z" transform="translate(-265 -20)"/><path class="cls-1" d="M566.83,229.17a7.71,7.71,0,0,1,1.81,5.52v10.05h-2.2v-9.82a6,6,0,0,0-1.26-4.12,4.64,4.64,0,0,0-3.62-1.42,5.38,5.38,0,0,0-4.16,1.67,6.53,6.53,0,0,0-1.53,4.59v9.1h-2.19V227.41h2.1v3.19a6.31,6.31,0,0,1,2.49-2.45,7.57,7.57,0,0,1,3.69-.88A6.44,6.44,0,0,1,566.83,229.17Z" transform="translate(-265 -20)"/><path class="cls-1" d="M583.17,243.68a4.14,4.14,0,0,1-1.54.91,5.74,5.74,0,0,1-1.9.31,4.59,4.59,0,0,1-3.52-1.32,5.25,5.25,0,0,1-1.24-3.72V229.38h-2.9v-2H575v-3.79h2.2v3.79h4.94v2h-4.94v10.35a3.36,3.36,0,0,0,.73,2.35,2.63,2.63,0,0,0,2.08.81,3.94,3.94,0,0,0,1.32-.23,3.1,3.1,0,0,0,1.09-.66Z" transform="translate(-265 -20)"/><path class="cls-1" d="M597.06,244.11a8.51,8.51,0,0,1-3.42-2.17l.9-1.88a8.43,8.43,0,0,0,3.12,2,10.73,10.73,0,0,0,4,.78,7,7,0,0,0,4.36-1.14,3.57,3.57,0,0,0,1.45-2.95,3,3,0,0,0-.79-2.2,5.16,5.16,0,0,0-1.93-1.27,28.47,28.47,0,0,0-3.18-1,33.29,33.29,0,0,1-3.9-1.27,6.45,6.45,0,0,1-2.48-1.86,5.14,5.14,0,0,1-1-3.4,5.79,5.79,0,0,1,3.52-5.47,10.33,10.33,0,0,1,4.45-.85,12.49,12.49,0,0,1,3.64.54,10,10,0,0,1,3.07,1.5l-.77,1.94a10.64,10.64,0,0,0-2.91-1.43,10.18,10.18,0,0,0-3-.48,6.68,6.68,0,0,0-4.28,1.17,3.74,3.74,0,0,0-1.43,3,3.13,3.13,0,0,0,.78,2.22,5.1,5.1,0,0,0,2,1.28,33.38,33.38,0,0,0,3.2,1,30.59,30.59,0,0,1,3.85,1.23,6.31,6.31,0,0,1,2.49,1.85,5.09,5.09,0,0,1,1,3.34,5.75,5.75,0,0,1-3.59,5.45,10.66,10.66,0,0,1-4.48.84A13.07,13.07,0,0,1,597.06,244.11Z" transform="translate(-265 -20)"/><path class="cls-1" d="M616.67,243.76a8,8,0,0,1-3-3.14,10,10,0,0,1,0-9.09,7.91,7.91,0,0,1,3-3.13,8.5,8.5,0,0,1,8.47,0,7.75,7.75,0,0,1,3,3.13,10.19,10.19,0,0,1,0,9.09,7.84,7.84,0,0,1-3,3.14,8.44,8.44,0,0,1-8.47,0ZM624,242a5.65,5.65,0,0,0,2.15-2.38,8.45,8.45,0,0,0,0-7,5.62,5.62,0,0,0-2.15-2.39,6.16,6.16,0,0,0-6.21,0,5.71,5.71,0,0,0-2.16,2.39,8.26,8.26,0,0,0,0,7A5.74,5.74,0,0,0,617.8,242a6.1,6.1,0,0,0,6.21,0Z" transform="translate(-265 -20)"/><path class="cls-1" d="M633.64,220.29h2.2v24.45h-2.2Z" transform="translate(-265 -20)"/><path class="cls-1" d="M656.61,227.41v17.33h-2.1v-3.17a6.2,6.2,0,0,1-2.38,2.46,6.84,6.84,0,0,1-3.46.87,6.7,6.7,0,0,1-5-1.89,7.72,7.72,0,0,1-1.84-5.56v-10H644v9.81a6,6,0,0,0,1.27,4.16,4.6,4.6,0,0,0,3.61,1.41,5.15,5.15,0,0,0,4-1.66,6.71,6.71,0,0,0,1.49-4.63v-9.09Z" transform="translate(-265 -20)"/><path class="cls-1" d="M671.32,243.68a4,4,0,0,1-1.53.91,5.74,5.74,0,0,1-1.9.31,4.59,4.59,0,0,1-3.52-1.32,5.21,5.21,0,0,1-1.24-3.72V229.38h-2.9v-2h2.9v-3.79h2.2v3.79h4.94v2h-4.94v10.35a3.41,3.41,0,0,0,.72,2.35,2.67,2.67,0,0,0,2.09.81,3.88,3.88,0,0,0,1.31-.23,3.05,3.05,0,0,0,1.1-.66Z" transform="translate(-265 -20)"/><path class="cls-1" d="M675.28,223.12a1.64,1.64,0,0,1-.46-1.18,1.62,1.62,0,0,1,.46-1.15,1.51,1.51,0,0,1,1.14-.5,1.53,1.53,0,0,1,1.15.48,1.58,1.58,0,0,1,.46,1.14,1.68,1.68,0,0,1-.46,1.21,1.56,1.56,0,0,1-2.29,0Zm0,4.29h2.2v17.33h-2.2Z" transform="translate(-265 -20)"/><path class="cls-1" d="M686,243.76a8,8,0,0,1-3-3.14,10.1,10.1,0,0,1,0-9.09,7.86,7.86,0,0,1,3-3.13,8.5,8.5,0,0,1,8.47,0,7.81,7.81,0,0,1,3,3.13,10.19,10.19,0,0,1,0,9.09,7.91,7.91,0,0,1-3,3.14,8.44,8.44,0,0,1-8.47,0Zm7.34-1.78a5.78,5.78,0,0,0,2.15-2.38,8.45,8.45,0,0,0,0-7,5.75,5.75,0,0,0-2.15-2.39,5.89,5.89,0,0,0-8.38,2.39,8.26,8.26,0,0,0,0,7,6,6,0,0,0,8.38,2.38Z" transform="translate(-265 -20)"/><path class="cls-1" d="M716.16,229.17a7.67,7.67,0,0,1,1.81,5.52v10.05h-2.2v-9.82a6,6,0,0,0-1.26-4.12,4.63,4.63,0,0,0-3.62-1.42,5.38,5.38,0,0,0-4.16,1.67,6.53,6.53,0,0,0-1.53,4.59v9.1H703V227.41h2.1v3.19a6.31,6.31,0,0,1,2.49-2.45,7.57,7.57,0,0,1,3.69-.88A6.44,6.44,0,0,1,716.16,229.17Z" transform="translate(-265 -20)"/><path class="cls-1" d="M724.51,244.29a8.08,8.08,0,0,1-2.83-1.53l1-1.85a7.91,7.91,0,0,0,2.56,1.4,9.43,9.43,0,0,0,3.22.55,5.86,5.86,0,0,0,3.29-.74,2.41,2.41,0,0,0,1.07-2.09,1.94,1.94,0,0,0-.59-1.5,3.78,3.78,0,0,0-1.49-.83,22.13,22.13,0,0,0-2.38-.54,25.69,25.69,0,0,1-3.18-.81,4.66,4.66,0,0,1-2.06-1.4,4.09,4.09,0,0,1-.85-2.73,4.39,4.39,0,0,1,1.7-3.56,7.32,7.32,0,0,1,4.73-1.39,11.49,11.49,0,0,1,3.16.45,8.53,8.53,0,0,1,2.59,1.17l-1,1.88a7.85,7.85,0,0,0-4.8-1.48,5.24,5.24,0,0,0-3.16.79,2.42,2.42,0,0,0-1.07,2.07,2.11,2.11,0,0,0,.6,1.58,3.62,3.62,0,0,0,1.5.88c.6.18,1.42.37,2.47.57a29.8,29.8,0,0,1,3.13.79,4.62,4.62,0,0,1,2,1.35A3.87,3.87,0,0,1,735,240a4.28,4.28,0,0,1-1.78,3.61,8,8,0,0,1-4.93,1.33A11.61,11.61,0,0,1,724.51,244.29Z" transform="translate(-265 -20)"/></g></svg>