<?xml version="1.0" encoding="utf-8"?>
<!-- Generator: Adobe Illustrator 23.0.3, SVG Export Plug-In . SVG Version: 6.00 Build 0)  -->
<svg version="1.1" id="Layer_1" xmlns="http://www.w3.org/2000/svg" xmlns:xlink="http://www.w3.org/1999/xlink" x="0px" y="0px"
	 viewBox="0 0 506.7 162.5" style="enable-background:new 0 0 506.7 162.5;" xml:space="preserve">
<style type="text/css">
	.st0{fill:#FFFFFF;}
</style>
<g>
	<g>
		<path class="st0" d="M317.7,143.5v-0.1c0-10.1,7.7-18.6,18.5-18.6c6.3,0,10.1,1.7,13.8,4.9l-4,4.8c-2.8-2.4-5.5-3.9-10.1-3.9
			c-6.6,0-11.7,5.8-11.7,12.7v0.1c0,7.4,4.9,12.8,12.2,12.8c3.4,0,6.5-1.1,8.7-2.7v-6.7H336v-5.5h15.3v15.1c-3.5,3-8.6,5.6-15,5.6
			C325.1,162,317.7,154,317.7,143.5z"/>
		<path class="st0" d="M359.5,125.4h16c4.5,0,8.1,1.3,10.4,3.6c1.9,2,3,4.6,3,7.8v0.1c0,5.9-3.5,9.4-8.5,10.9l9.7,13.6h-7.5
			l-8.8-12.5h-7.9v12.5h-6.3V125.4z M375.1,143.2c4.5,0,7.4-2.4,7.4-6v-0.1c0-3.9-2.8-6-7.4-6h-9.2v12.1H375.1z"/>
		<path class="st0" d="M395,143.5v-0.1c0-10.1,7.8-18.6,18.8-18.6s18.7,8.4,18.7,18.5v0.1c0,10.1-7.8,18.6-18.8,18.6
			S395,153.6,395,143.5z M426,143.5v-0.1c0-7-5.1-12.8-12.2-12.8s-12.1,5.7-12.1,12.7v0.1c0,7,5.1,12.7,12.2,12.7
			C421,156.1,426,150.5,426,143.5z"/>
		<path class="st0" d="M439.7,146.1v-20.7h6.3v20.4c0,6.7,3.4,10.2,9.1,10.2c5.6,0,9-3.3,9-10v-20.7h6.3v20.4
			c0,10.7-6.1,16.1-15.5,16.1C445.7,161.9,439.7,156.5,439.7,146.1z"/>
		<path class="st0" d="M479.1,125.4h14.2c8.4,0,13.7,4.8,13.7,12v0.1c0,8.1-6.5,12.3-14.4,12.3h-7.1v11.6h-6.3V125.4z M492.8,144.1
			c4.8,0,7.8-2.7,7.8-6.4v-0.1c0-4.2-3-6.4-7.8-6.4h-7.3v12.9H492.8z"/>
	</g>
	<path class="st0" d="M309.4,141.8l-17.3-16.5c-0.2-0.2-0.4-0.2-0.6-0.1c-0.2,0.1-0.3,0.3-0.3,0.5v34.4c0,0.2,0.1,0.4,0.4,0.5
		c0.1,0,0.1,0,0.2,0c0.2,0,0.3-0.1,0.4-0.2l17.3-17.9c0.1-0.1,0.2-0.3,0.2-0.4C309.6,142,309.5,141.9,309.4,141.8z"/>
	<g>
		<path class="st0" d="M262.2,114.7L214.6,2.1c-0.4-1.1-1.5-1.7-2.6-1.7h-29.9c-1.1,0-2.2,0.7-2.6,1.7l-47.4,112.6
			c-0.4,0.9-0.3,1.9,0.3,2.7c0.5,0.8,1.4,1.3,2.4,1.3h32.4c1.2,0,2.2-0.7,2.7-1.8l7.3-16h39.4l7.3,16c0.4,1.1,1.5,1.8,2.7,1.8h33.2
			c1,0,1.8-0.5,2.4-1.3C262.5,116.6,262.6,115.6,262.2,114.7z M205.1,71h-16.7l8.4-21L205.1,71z"/>
		<path class="st0" d="M400.3,114.8L352.7,2.2c-0.4-1.1-1.5-1.7-2.6-1.7h-29.9c-1.1,0-2.2,0.7-2.6,1.7l-47.4,112.6
			c-0.4,0.9-0.3,1.9,0.3,2.7c0.5,0.8,1.4,1.3,2.4,1.3h32.4c1.2,0,2.2-0.7,2.7-1.8l7.3-16h39.4l7.3,16c0.4,1.1,1.5,1.8,2.7,1.8h33.2
			c1,0,1.8-0.5,2.4-1.3C400.6,116.7,400.7,115.6,400.3,114.8z M343.2,71.1h-16.7l8.4-21L343.2,71.1z"/>
		<path class="st0" d="M462.6,43.4c-16.1-3.6-17.3-5.5-17.3-8.1v-0.3c0-4,6.4-4.3,8.3-4.3c9.7,0,20.2,3.7,29.6,10.5
			c0.6,0.4,1.4,0.6,2.1,0.5c0.7-0.1,1.4-0.5,1.9-1.2l15.5-21.9c0.9-1.2,0.6-2.9-0.5-3.9c-13-10.4-28.6-15.5-47.8-15.5
			c-27.6,0-46.1,15.5-46.1,38.6v0.3c0,25.5,21,32.4,44.4,37.8c15.6,3.7,16.8,5.8,16.8,8.1v0.3c0,4.3-7.1,4.8-10.1,4.8
			c-12.1,0-23.7-4.3-34.5-12.8c-1.2-1-3-0.8-3.9,0.4l-17.3,20.6c-1,1.2-0.9,2.9,0.3,4c14,12.4,33.3,19.2,54.3,19.2
			c29.2,0,48.1-15.4,48.1-39.3v-0.3C506.4,56.4,485.3,48.4,462.6,43.4z"/>
		<path class="st0" d="M122.7,1.2H89.9c-1,0-1.9,0.5-2.4,1.4L63.2,41.9L39,2.6c-0.5-0.8-1.4-1.4-2.4-1.4H3.8C2.2,1.2,1,2.5,1,4.1
			v29.5l24.4,23.4c0.1,0.1,0.2,0.2,0.2,0.4c0,0.2-0.1,0.3-0.2,0.4L1,83.1v32.7c0,1.6,1.3,2.9,2.9,2.9h30.3c1.6,0,2.9-1.3,2.9-2.9
			V61.4L60.2,97c0.5,0.8,1.4,1.3,2.4,1.3h0.6c1,0,1.9-0.5,2.4-1.3L89,61.2v54.6c0,1.6,1.3,2.9,2.9,2.9h30.8c1.6,0,2.9-1.3,2.9-2.9
			V4.1C125.5,2.5,124.2,1.2,122.7,1.2z"/>
	</g>
</g>
</svg>
