<svg xmlns="http://www.w3.org/2000/svg" xmlns:xlink="http://www.w3.org/1999/xlink" viewBox="0 0 300 300"><defs><linearGradient id="a" x1="102.237" y1="42.144" x2="-18.913" y2="251.983" gradientUnits="userSpaceOnUse"><stop offset="0" stop-color="#fdb913"/><stop offset="1" stop-color="#f68b1f"/></linearGradient><linearGradient id="b" x1="211.964" y1="1.839" x2="89.487" y2="213.976" xlink:href="#a"/><radialGradient id="c" cx="142.287" cy="-19.96" r="74.592" gradientUnits="userSpaceOnUse"><stop offset="0" stop-color="#692b87"/><stop offset="0.241" stop-color="#5c287d"/><stop offset="0.684" stop-color="#3a2064"/><stop offset="1" stop-color="#1e194f"/></radialGradient><linearGradient id="d" x1="71.902" y1="59.667" x2="-50.579" y2="271.811" xlink:href="#a"/><linearGradient id="e" x1="84.325" y1="53.314" x2="221.394" y2="288.29" xlink:href="#a"/></defs><title>family-orange</title><path d="M113.618,3.054c-9.5,6.658-11.631,27.432,4.527,26.281,15-1.155,10.124-36.882-4.356-26.447" fill="url(#a)"/><path d="M206.912.439c-9.8-4.391-26.025,25.512-7.79,30,16.642,4.169,22.1-23.027,7.7-30.076" fill="url(#b)"/><path d="M166.894,5.444c-9.8-4.39-26.025,25.509-7.786,30C175.746,39.61,181.2,12.413,166.8,5.364" fill="url(#c)"/><path d="M90.426,20.282c-7.065-3.162-18.735,18.365-5.613,21.6,11.982,3,15.905-16.582,5.543-21.656" fill="url(#d)"/><path d="M248.764,204.3c-2.307-8.653-4.04-17.306-5.769-25.959-7.5-35.2-4.613-72.114-13.27-106.73C217.61,22,170.305,36.995,151.844,51.994c-46.727-35.19-68.912,8.862-75,21.348-8.786,18.032-9.23,48.456-10.963,61.148-4.036,20.771-10.383,41.542-16.151,61.729-1.725,7.5-10.382,31.732,2.888,32.309,10.382,0,27.11-20.19,31.724-28.266,5.612-10.1,9.305-22.387,12.091-35.064h.024C94.754,180.006,94.774,193.635,93,207.76s-10.39,52.5,8.657,60c9.226,2.306,15.565-18.466,17.306-29.425,4.036-27.111,8.071-53.074,15-79.607-1.733,15-5.191,139.03,17.884,137.3,22.551-1.693,19.039-119.417,21.346-139.033,4.617,35.189,7.5,69.8,9.8,104.991,1.155,10.386,1.155,26.541,9.808,34.616,6.928,5.773,11.546,4.04,13.849-4.04,5.19-17.879,2.294-46.773.577-64.61-2.88-30-13.27-54.807-8.079-78.461,4.621,5.191,5.238,14.564,6.346,20.77s5.773,21.923,10.382,32.305c5.191,10.96,18.462,25.737,32.309,25.963,3.985.063,5.844-2.021,6.347-4.613C255.446,219.243,249.919,208.912,248.764,204.3Z" fill="url(#e)"/></svg>