<?xml version="1.0" encoding="UTF-8" standalone="no"?>
<!-- Created with Inkscape (http://www.inkscape.org/) by Marsupilami -->
<svg
   xmlns:svg="http://www.w3.org/2000/svg"
   xmlns="http://www.w3.org/2000/svg"
   version="1.0"
   width="1024"
   height="361"
   viewBox="0 0 127.55888 44.94125"
   id="svg2403"
   xml:space="preserve"><defs
     id="defs2406"><clipPath
       id="clipPath2418"><path
         d="M 0,0 L 595.276,0 L 595.276,841.89 L 0,841.89 L 0,0 z "
         id="path2420" /></clipPath><clipPath
       id="clipPath2438"><path
         d="M 0,0 L 595.276,0 L 595.276,841.89 L 0,841.89 L 0,0 z "
         id="path2440" /></clipPath><clipPath
       id="clipPath2450"><path
         d="M 464.882,46.323 C 464.882,36.395 472.93,28.346 482.859,28.346 L 482.859,28.346 C 492.787,28.346 500.836,36.395 500.836,46.323 L 500.836,46.323 C 500.836,56.251 492.787,64.3 482.859,64.3 L 482.859,64.3 C 472.93,64.3 464.882,56.251 464.882,46.323"
         id="path2452" /></clipPath><clipPath
       id="clipPath2468"><path
         d="M 0,0 L 595.276,0 L 595.276,841.89 L 0,841.89 L 0,0 z "
         id="path2470" /></clipPath><clipPath
       id="clipPath2488"><path
         d="M 0,0 L 595.276,0 L 595.276,841.89 L 0,841.89 L 0,0 z "
         id="path2490" /></clipPath><clipPath
       id="clipPath2500"><path
         d="M 28.382,785.197 L 566.97,785.197 L 566.97,388.348 L 28.382,388.348 L 28.382,785.197 z "
         id="path2502" /></clipPath></defs><g
     transform="matrix(1.25,0,0,-1.25,-581.102,80.374375)"
     id="g2412"><g
       id="g2414"><g
         clip-path="url(#clipPath2418)"
         id="g2416"><g
           transform="translate(526.0154,48.6154)"
           id="g2422"><path
             d="M 0,0 C -2.782,0 -4.483,2.172 -4.483,4.81 C -4.483,8.358 -1.974,9.797 0.138,9.797 C 2.427,9.797 4.016,8.648 4.447,6.388 L 1.419,6.388 C 1.272,6.883 0.848,7.176 0.315,7.176 C -1.188,7.176 -1.333,5.859 -1.333,4.747 C -1.333,3.919 -1.006,2.621 0.504,2.621 C 1.008,2.621 1.475,2.837 1.673,3.235 L 0.527,3.235 L 0.527,5.542 L 4.584,5.542 L 4.584,0.214 L 2.471,0.214 L 2.407,0.877 C 1.758,0.262 0.88,0 0,0"
             style="fill:#002052;fill-opacity:1;fill-rule:nonzero;stroke:none"
             id="path2424" /></g><g
           transform="translate(516.4941,58.4122)"
           id="g2426"><path
             d="M 0,0 C 2.077,0.033 3.702,-0.87 3.971,-2.981 L 1.01,-2.981 C 0.917,-2.762 0.917,-2.699 0.702,-2.563 C 0.52,-2.432 0.246,-2.37 -0.01,-2.37 C -0.263,-2.37 -0.807,-2.42 -0.814,-2.776 C -0.705,-3.809 4.322,-3.147 4.322,-6.51 C 4.322,-9.031 1.99,-9.797 -0.022,-9.797 C -1.888,-9.797 -3.718,-8.996 -4.138,-6.863 L -0.942,-6.863 C -0.697,-7.345 -0.285,-7.427 0.217,-7.427 C 0.687,-7.427 1.172,-7.271 1.172,-6.799 C 1.172,-6.659 1.136,-6.567 0.889,-6.444 C 0.618,-6.309 0.155,-6.173 -0.628,-5.95 C -2.099,-5.533 -3.813,-5.105 -3.813,-3.161 C -3.813,-0.924 -1.886,-0.03 0,0"
             style="fill:#002052;fill-opacity:1;fill-rule:nonzero;stroke:none"
             id="path2428" /></g></g></g><g
       transform="translate(507.9865,51.5135)"
       id="g2430"><path
         d="M 0,0 L 3.582,0 L 3.582,-2.684 L -3.15,-2.684 L -3.15,6.685 L 0,6.685 L 0,0 z "
         style="fill:#002052;fill-opacity:1;fill-rule:nonzero;stroke:none"
         id="path2432" /></g><g
       id="g2434"><g
         clip-path="url(#clipPath2438)"
         id="g2436"><g
           transform="translate(482.8586,28.3465)"
           id="g2442"><path
             d="M 22.46875,0 C 10.058749,0 0,10.05875 0,22.46875 C 0,34.878751 10.05875,44.9375 22.46875,44.9375 C 34.878749,44.9375 44.9375,34.87875 44.9375,22.46875 C 44.937499,10.058751 34.87875,0 22.46875,0 z M 54.28125,25.5625 C 52.17875,25.5625 49.718749,26.518749 49.71875,28.96875 C 49.71875,31.03125 51.395001,31.762501 53,32.21875 C 54.60875,32.69375 56.218749,32.883749 56.21875,33.875 C 56.21875,34.70875 55.284998,34.999998 54.40625,35 C 53.16625,35 52.34375,34.5725 52.28125,33.25 L 49.375,33.25 C 49.39125,36.1275 51.673749,37.281251 54.25,37.28125 C 56.715,37.28125 59.124999,36.343751 59.125,33.5 C 59.125,31.47 57.49625,30.7375 55.875,30.28125 C 54.24875,29.80625 52.624999,29.647501 52.625,28.78125 C 52.625,28.0425 53.403748,27.8125 54.03125,27.8125 C 54.925,27.8125 55.889999,28.13375 55.84375,29.15625 L 58.78125,29.15625 C 58.765,26.62625 56.511252,25.562501 54.28125,25.5625 z M 88.625,25.5625 C 85.225,25.5625 83.031247,28.14625 83.03125,31.40625 C 83.03125,34.6675 85.225002,37.281251 88.625,37.28125 C 91.4725,37.28125 93.592498,35.55375 93.75,32.65625 L 90.84375,32.65625 C 90.73375,33.94875 89.931253,34.750002 88.5625,34.75 C 86.675,34.75 85.937497,33.07625 85.9375,31.40625 C 85.9375,29.7375 86.675003,28.062501 88.5625,28.0625 C 89.79,28.0625 90.686252,28.678751 90.84375,29.8125 L 93.75,29.8125 C 93.67125,27.10375 91.047502,25.562501 88.625,25.5625 z M 60.46875,25.78125 L 60.46875,37.03125 L 63.15625,37.03125 L 63.15625,34.40625 L 63.84375,33.75 L 65.84375,37.03125 L 69.0625,37.03125 L 65.6875,31.9375 L 68.6875,28.875 L 65.59375,28.875 L 63.15625,31.59375 L 63.15625,25.78125 L 60.46875,25.78125 z M 95.09375,25.78125 L 95.09375,37.03125 L 97.75,37.03125 L 97.75,32.5625 C 97.75,31.665 98.208747,30.8125 99.21875,30.8125 C 100.6875,30.8125 100.5625,31.945 100.5625,33.0625 L 100.5625,37.03125 L 103.25,37.03125 L 103.25,31.78125 C 103.25,30.6 103.005,28.625 100.28125,28.625 C 99.3025,28.625 98.192504,29.135001 97.75,29.96875 L 97.75,25.78125 L 95.09375,25.78125 z M 118.09375,25.78125 C 115.81125,25.78125 115,26.524999 115,28.875 L 113.6875,28.875 L 113.6875,30.59375 L 115,30.59375 L 115,37.03125 L 117.65625,37.03125 L 117.65625,30.59375 L 119.28125,30.59375 L 119.28125,28.875 L 117.65625,28.875 L 117.65625,28.5 C 117.65625,27.755 118.0425,27.687501 118.65625,27.6875 C 118.8925,27.6875 119.12375,27.68625 119.375,27.71875 L 119.375,25.84375 C 118.95,25.82875 118.51875,25.78125 118.09375,25.78125 z M 108.90625,28.625 C 106.49375,28.625 104.5,30.42375 104.5,32.9375 C 104.5,35.67625 106.305,37.28125 108.96875,37.28125 C 110.79875,37.281251 112.54375,36.45125 113.03125,34.5625 L 110.53125,34.5625 C 110.27875,35.162502 109.64625,35.46875 109,35.46875 C 107.86375,35.46875 107.20375,34.715 107.15625,33.59375 L 113.1875,33.59375 C 113.31375,30.819999 111.8375,28.625 108.90625,28.625 z M 123.53125,28.625 C 121.9275,28.625 119.78125,29.159999 119.78125,31.125 C 119.78125,33.33375 121.9125,33.38625 123.59375,33.8125 C 124.065,33.9225 124.875,34.05625 124.875,34.6875 C 124.875,35.335 124.14375,35.531248 123.625,35.53125 C 123.24875,35.53125 122.87625,35.439998 122.625,35.25 C 122.3575,35.03625 122.1875,34.753749 122.1875,34.34375 L 119.65625,34.34375 C 119.735,36.6325 121.72375,37.281251 123.65625,37.28125 C 125.495,37.28125 127.5625,36.561249 127.5625,34.375 C 127.5625,33.69625 127.12125,32.487501 125.46875,32.15625 C 124.2425,31.88875 122.46875,31.74125 122.46875,30.96875 C 122.46875,30.4 123.185,30.343749 123.625,30.34375 C 123.955,30.34375 124.24875,30.421249 124.46875,30.5625 C 124.68875,30.70375 124.8125,30.905 124.8125,31.25 L 127.28125,31.25 C 127.18625,29.13125 125.32125,28.625 123.53125,28.625 z M 69.34375,28.875 L 71.4375,34.53125 C 71.595,34.97125 72.124996,36.2475 72.125,36.6875 C 72.125,37.25375 71.645004,37.593749 71.03125,37.59375 L 70.125,37.59375 L 70.125,39.75 L 71.375,39.75 C 73.18375,39.75 74.137503,39.5475 74.78125,37.75 L 78,28.875 L 75.28125,28.875 L 73.71875,34.1875 L 72.15625,28.875 L 69.34375,28.875 z M 108.90625,30.4375 C 109.805,30.437501 110.4525,31.20375 110.5,32.125 L 107.15625,32.125 C 107.31375,31.123751 107.95875,30.4375 108.90625,30.4375 z "
             transform="matrix(0.8,0,0,-0.8,-17.977,35.953)"
             style="fill:#002052;fill-opacity:1;fill-rule:nonzero;stroke:none"
             id="path2444" /></g></g></g><g
       id="g2446"><g
         clip-path="url(#clipPath2450)"
         id="g2448"><path
           d="M 486.759,56.429 L 502.13,56.429 L 502.13,57.779 L 486.759,57.779 L 486.759,56.429 z "
           style="fill:#071D49;fill-opacity:1;fill-rule:nonzero;stroke:#071D49;stroke-width:0.60000002;stroke-linecap:butt;stroke-linejoin:miter;stroke-miterlimit:4;stroke-dasharray:none;stroke-opacity:1"
           id="path2454" /><path
           d="M 479.529,51.039 L 502.811,51.039 L 502.811,52.389 L 479.529,52.389 L 479.529,51.039 z "
           style="fill:#071D49;fill-opacity:1;fill-rule:nonzero;stroke:#071D49;stroke-width:0.60000002;stroke-linecap:butt;stroke-linejoin:miter;stroke-miterlimit:4;stroke-dasharray:none;stroke-opacity:1"
           id="path2456" /><path
           d="M 479.529,40.258 L 502.81,40.258 L 502.81,41.608 L 479.529,41.608 L 479.529,40.258 z "
           style="fill:#071D49;fill-opacity:1;fill-rule:nonzero;stroke:#071D49;stroke-width:0.60000002;stroke-linecap:butt;stroke-linejoin:miter;stroke-miterlimit:4;stroke-dasharray:none;stroke-opacity:1"
           id="path2458" /><path
           d="M 486.759,34.867 L 502.13,34.867 L 502.13,36.217 L 486.759,36.217 L 486.759,34.867 z "
           style="fill:#071D49;fill-opacity:1;fill-rule:nonzero;stroke:#071D49;stroke-width:0.60000002;stroke-linecap:butt;stroke-linejoin:miter;stroke-miterlimit:4;stroke-dasharray:none;stroke-opacity:1"
           id="path2460" /></g></g><path
       d="M 472.363,45.648 L 530.296,45.648 L 530.296,46.998 L 472.363,46.998 L 472.363,45.648 z "
       style="fill:#071D49;fill-opacity:1;fill-rule:nonzero;stroke:#071D49;stroke-width:0.60000002;stroke-linecap:butt;stroke-linejoin:miter;stroke-miterlimit:4;stroke-dasharray:none;stroke-opacity:1"
       id="path2462" /><g
       id="g2464"><g
         clip-path="url(#clipPath2468)"
         id="g2466"><g
           transform="translate(521.9765,53.4258)"
           id="g2472"><path
             d="M 0,0 C 0,-2.578 1.663,-4.366 4.039,-4.366 C 5.043,-4.366 5.877,-3.996 6.394,-3.331 L 6.786,-2.828 L 6.847,-3.463 L 6.913,-4.152 L 8.179,-4.152 L 8.179,0.288 L 5.01,0.288 L 5.01,-1.131 L 5.978,-1.131 L 6.29,-1.131 L 6.226,-1.436 C 6.053,-2.27 5.247,-2.633 4.543,-2.633 C 2.856,-2.633 2.262,-1.291 2.262,-0.063 L 2.262,-0.006 C 2.26,0.78 2.343,1.688 2.932,2.279 C 3.285,2.633 3.766,2.809 4.354,2.809 C 5.009,2.809 5.545,2.437 5.765,2.022 L 7.934,2.022 C 7.499,3.602 6.127,4.543 4.177,4.543 C 2.098,4.543 0,3.144 0,0"
             style="fill:#071D49;fill-opacity:1;fill-rule:nonzero;stroke:none"
             id="path2474" /></g><g
           transform="translate(512.9209,51.1048)"
           id="g2476"><path
             d="M 0,0 C 0.611,-1.93 3.03,-2.046 3.551,-2.046 C 4.497,-2.046 7.452,-1.829 7.452,0.798 C 7.452,2.921 5.092,3.103 3.583,3.533 C 3.093,3.673 2.363,3.908 2.315,4.521 C 2.315,5.067 2.823,5.382 3.564,5.382 C 3.778,5.382 4.195,5.349 4.519,5.115 C 4.701,5.001 4.792,4.91 4.869,4.771 L 7.016,4.771 C 6.577,6.37 5.064,6.887 3.58,6.863 C 1.927,6.837 0.204,6.101 0.204,4.146 C 0.204,2.486 1.814,2.137 3.066,1.784 C 3.558,1.644 4.247,1.478 4.7,1.24 C 5.041,1.061 5.189,0.848 5.189,0.508 C 5.189,-0.294 4.441,-0.564 3.79,-0.564 C 3.124,-0.564 2.643,-0.379 2.376,0 L 0,0 z "
             style="fill:#071D49;fill-opacity:1;fill-rule:nonzero;stroke:none"
             id="path2478" /></g></g></g><g
       transform="translate(511.1246,51.0696)"
       id="g2480"><path
         d="M 0,0 L -3.328,0 L -3.582,0 L -3.582,0.254 L -3.582,6.685 L -5.844,6.685 L -5.844,-1.796 L 0,-1.796 L 0,0 z "
         style="fill:#071D49;fill-opacity:1;fill-rule:nonzero;stroke:none"
         id="path2482" /></g><g
       id="g2484"><g
         clip-path="url(#clipPath2488)"
         id="g2486"><g
           transform="translate(562.6407,36.8304)"
           id="g2492" /></g></g><g
       id="g2496"><g
         clip-path="url(#clipPath2500)"
         id="g2498"><g
           transform="matrix(540.51401,0,0,398.86118,27.387314,387.38937)"
           id="g2504" /></g></g></g></svg>
