<?xml version="1.0" encoding="utf-8"?>
<!-- Generator: Adobe Illustrator 24.3.2, SVG Export Plug-In . SVG Version: 6.00 Build 0)  -->
<svg version="1.1" id="Layer_1" xmlns="http://www.w3.org/2000/svg" xmlns:xlink="http://www.w3.org/1999/xlink" x="0px" y="0px"
	 viewBox="0 0 382.7 99.2" style="enable-background:new 0 0 382.7 99.2;" xml:space="preserve">
<style type="text/css">
	.st0{fill:#C7BEBB;}
	.st1{fill:url(#SVGID_1_);}
	.st2{fill:url(#SVGID_2_);}
	.st3{fill:url(#SVGID_3_);}
	.st4{fill:url(#SVGID_4_);}
	.st5{fill:url(#SVGID_5_);}
	.st6{fill:url(#SVGID_6_);}
	.st7{fill:url(#SVGID_7_);}
	.st8{fill:url(#SVGID_8_);}
	.st9{fill:url(#SVGID_9_);}
	.st10{fill:url(#SVGID_10_);}
	.st11{fill:url(#SVGID_11_);}
	.st12{fill:url(#SVGID_12_);}
	.st13{fill:#C6BEBB;}
</style>
<g>
	<g>
		<path class="st0" d="M218.3,95.8l-6.5-0.1c0-15.9-3.2-14.8-3.2-14.8l0.6,14.7l-6.8-0.1l-0.2-30.9l6.1-0.5l-0.1,10
			c2.6-0.4,5.1,0,6.6,1C219.9,78.2,218.4,95.7,218.3,95.8z"/>
		<path class="st0" d="M219.2,86.3c-1.1-6.1,2.4-13.9,8.6-13.4c5.2,0.5,9.1,5.9,7.9,11l-8.1,4.3c0,0,3.4,1.6,7.9,0.6
			c0.5,4,0.8,6.1,0.8,6.1C229.6,97.9,220.5,93.5,219.2,86.3z M229.3,81.7c0,0-1-1.6-2.3-1.2c-1.6,0.6-1,2.8-1,2.8L229.3,81.7z"/>
		<path class="st0" d="M251.8,81.8l-0.2,14h-9.5c-4.2,0-6.4-4.8-6-8.9c0.3-3.2,1.7-5.4,4.6-6.8l-4.2-4.3c3-2.4,7.7-3.2,11.4-0.7
			C250.4,76.7,251.6,78.8,251.8,81.8z M245.1,84.8c0,0-2.3,0.1-2.6,3c-0.2,2.8,2.6,2.9,2.6,2.9V84.8z"/>
		<path class="st0" d="M260.4,65.1L260,95.6h-6.6l-0.1-30.2L260.4,65.1z"/>
		<path class="st0" d="M274.2,72.9l-0.2,5.9l-5.7-0.2l-0.5,11l6.6-0.4c1.2,2.9-2.2,7.1-5.7,7.3c-3.1,0.2-6.7-1.1-6.7-4.3l0-24.3
			l5.9-0.1l-0.1,5.4L274.2,72.9z"/>
		<path class="st0" d="M292.4,95.8l-6.5-0.1c0-15.9-3.2-14.8-3.2-14.8l0.6,14.7l-6.8-0.1l-0.2-30.9l6.1-0.5l-0.1,10
			c2.6-0.4,5.1,0,6.6,1C293.9,78.2,292.5,95.7,292.4,95.8z"/>
	</g>
	<g>
		<g>
			<g>
				<linearGradient id="SVGID_1_" gradientUnits="userSpaceOnUse" x1="7.892" y1="36.5969" x2="61.5368" y2="36.5969">
					<stop  offset="0" style="stop-color:#FDBA12"/>
					<stop  offset="1" style="stop-color:#F7901E"/>
				</linearGradient>
				<path class="st1" d="M11.5,17.5C1.5,39.2,13,66.6,37.1,62.4c13.3-2.5,33.3-31.7,20-43.3c-11.7-10.8-10,16.7-20.8,16.7
					c-16.6,0-13.9-41.7-24.8-18.4"/>
			</g>
			<g>
				<linearGradient id="SVGID_2_" gradientUnits="userSpaceOnUse" x1="27.3628" y1="16.6993" x2="46.6506" y2="16.6993">
					<stop  offset="0" style="stop-color:#FDBA12"/>
					<stop  offset="1" style="stop-color:#F7901E"/>
				</linearGradient>
				<path class="st2" d="M39.1,5.5C28.7,6.7,21.8,24,33.3,27.4c15,4.6,17.8-23.6,6-21.9"/>
			</g>
		</g>
		<radialGradient id="SVGID_3_" cx="193.8722" cy="26.5345" r="266.2533" gradientUnits="userSpaceOnUse">
			<stop  offset="0" style="stop-color:#6A2C88"/>
			<stop  offset="0.2368" style="stop-color:#5D287E"/>
			<stop  offset="0.673" style="stop-color:#3B2064"/>
			<stop  offset="1" style="stop-color:#1E184E"/>
		</radialGradient>
		<polygon class="st3" points="214.8,3.6 229.4,2.8 228.5,62 215.1,62 		"/>
		<radialGradient id="SVGID_4_" cx="193.8752" cy="26.5341" r="266.2543" gradientUnits="userSpaceOnUse">
			<stop  offset="0" style="stop-color:#6A2C88"/>
			<stop  offset="0.2368" style="stop-color:#5D287E"/>
			<stop  offset="0.673" style="stop-color:#3B2064"/>
			<stop  offset="1" style="stop-color:#1E184E"/>
		</radialGradient>
		<path class="st4" d="M262.6,43.2c-1.5-13.8,9.5-26.9,27-23.7l-10.2,20.4l11,22.4C274.2,64.3,263.9,55.6,262.6,43.2z"/>
		<radialGradient id="SVGID_5_" cx="193.877" cy="26.5338" r="266.2547" gradientUnits="userSpaceOnUse">
			<stop  offset="0" style="stop-color:#6A2C88"/>
			<stop  offset="0.2368" style="stop-color:#5D287E"/>
			<stop  offset="0.673" style="stop-color:#3B2064"/>
			<stop  offset="1" style="stop-color:#1E184E"/>
		</radialGradient>
		<path class="st5" d="M319.1,62.2L319,19h9.5c12.4-0.1,13.2,10,12.8,15.1l-11.7-0.1l2.7,28.3L319.1,62.2z"/>
		<radialGradient id="SVGID_6_" cx="193.8664" cy="26.5335" r="266.2497" gradientUnits="userSpaceOnUse">
			<stop  offset="0" style="stop-color:#6A2C88"/>
			<stop  offset="0.2368" style="stop-color:#5D287E"/>
			<stop  offset="0.673" style="stop-color:#3B2064"/>
			<stop  offset="1" style="stop-color:#1E184E"/>
		</radialGradient>
		<path class="st6" d="M80.2,62.3l0.6-56.6L101.5,7c9.8,1.1,15.8,14.4,11.8,22.8c-3.3,7-10.4,11.2-17.7,10.7l-0.1,21.8H80.2z
			 M95.5,19.6l0.1,8.2c0,0,4.3-0.4,4.3-4C100,20.3,95.5,19.6,95.5,19.6z"/>
		<radialGradient id="SVGID_7_" cx="193.8703" cy="26.5343" r="266.254" gradientUnits="userSpaceOnUse">
			<stop  offset="0" style="stop-color:#6A2C88"/>
			<stop  offset="0.2368" style="stop-color:#5D287E"/>
			<stop  offset="0.673" style="stop-color:#3B2064"/>
			<stop  offset="1" style="stop-color:#1E184E"/>
		</radialGradient>
		<path class="st7" d="M196.9,63.2l0.1,17.5l-12.8,0l-0.2-60.8l13.5-0.1c9.6,0,15.3,9.1,16.7,18.8C215.7,48.9,208.1,61.7,196.9,63.2
			z M196.9,37l0,8.9c0,0,4.3-0.2,3.9-4.5C200.6,37.2,196.9,37,196.9,37z"/>
		<radialGradient id="SVGID_8_" cx="193.8686" cy="26.5339" r="266.276" gradientUnits="userSpaceOnUse">
			<stop  offset="0" style="stop-color:#6A2C88"/>
			<stop  offset="0.2368" style="stop-color:#5D287E"/>
			<stop  offset="0.673" style="stop-color:#3B2064"/>
			<stop  offset="1" style="stop-color:#1E184E"/>
		</radialGradient>
		<path class="st8" d="M262.7,61.3c-12.9,6-30.7-2.7-33.2-16.7c-2-11.8,4.7-27.1,16.8-26.1c10.2,0.9,17.7,11.5,15.4,21.4l-15.9,8.4
			c0,0,6.6,3.2,15.3,1.2C262.1,57.3,262.7,61.3,262.7,61.3z M242.8,38.7l6.4-3.2c0,0-2.1-3.2-4.5-2.2
			C241.7,34.5,242.8,38.7,242.8,38.7z"/>
		<radialGradient id="SVGID_9_" cx="193.8753" cy="26.5339" r="266.2585" gradientUnits="userSpaceOnUse">
			<stop  offset="0" style="stop-color:#6A2C88"/>
			<stop  offset="0.2368" style="stop-color:#5D287E"/>
			<stop  offset="0.673" style="stop-color:#3B2064"/>
			<stop  offset="1" style="stop-color:#1E184E"/>
		</radialGradient>
		<path class="st9" d="M374.8,61.3c-12.9,6-30.7-2.7-33.1-16.7c-2.1-11.8,4.8-27.1,16.8-26.1c10.2,0.9,17.7,11.5,15.4,21.4
			l-15.9,8.4c0,0,6.6,3.2,15.3,1.2C374.2,57.3,374.8,61.3,374.8,61.3z M354.9,38.7l6.4-3.2c0,0-2.1-3.2-4.5-2.2
			C353.8,34.5,354.9,38.7,354.9,38.7z"/>
		<radialGradient id="SVGID_10_" cx="193.8722" cy="26.5344" r="266.2637" gradientUnits="userSpaceOnUse">
			<stop  offset="0" style="stop-color:#6A2C88"/>
			<stop  offset="0.2368" style="stop-color:#5D287E"/>
			<stop  offset="0.673" style="stop-color:#3B2064"/>
			<stop  offset="1" style="stop-color:#1E184E"/>
		</radialGradient>
		<path class="st10" d="M288.5,23.4c5.7-4.7,14.7-6.3,22-1.4c4.8,3.2,7.2,7.2,7.5,13l-0.4,27h-18.2c-8.1,0-12.4-9.1-11.6-17.2
			c0.6-6.2,3.4-10.3,8.9-13L288.5,23.4z M304.6,48.8l0.2-6.6c0,0-2.7,0.7-3,3.3C301.5,48.8,304.6,48.8,304.6,48.8z"/>
		<radialGradient id="SVGID_11_" cx="193.8712" cy="26.5339" r="266.2625" gradientUnits="userSpaceOnUse">
			<stop  offset="0" style="stop-color:#6A2C88"/>
			<stop  offset="0.2368" style="stop-color:#5D287E"/>
			<stop  offset="0.673" style="stop-color:#3B2064"/>
			<stop  offset="1" style="stop-color:#1E184E"/>
		</radialGradient>
		<path class="st11" d="M145.6,61.3c-12.9,6-30.7-2.7-33.1-16.7c-2-11.8,4.8-27.1,16.8-26.1c10.2,0.9,17.7,11.5,15.4,21.4l-15.9,8.4
			c0,0,6.6,3.2,15.3,1.2C145,57.3,145.6,61.3,145.6,61.3z M125.7,38.7l6.4-3.2c0,0-2.1-3.2-4.5-2.2
			C124.6,34.5,125.7,38.7,125.7,38.7z"/>
		<radialGradient id="SVGID_12_" cx="193.869" cy="26.5339" r="266.2549" gradientUnits="userSpaceOnUse">
			<stop  offset="0" style="stop-color:#6A2C88"/>
			<stop  offset="0.2368" style="stop-color:#5D287E"/>
			<stop  offset="0.673" style="stop-color:#3B2064"/>
			<stop  offset="1" style="stop-color:#1E184E"/>
		</radialGradient>
		<path class="st12" d="M164.3,18.5c10.6,0,19.2,10,19.2,22.3c0,12.3-8.6,22.3-19.2,22.3c-10.6,0-19.2-10-19.2-22.3
			C145.1,28.5,153.7,18.5,164.3,18.5z M162.3,41c-0.1,1.7,1.1,3.2,2.5,3.2c1.4,0,2.5-0.7,2.5-3.2c0-2.5-1.1-4.6-2.5-4.6
			C163.4,36.4,162.4,38.5,162.3,41z"/>
	</g>
	<path class="st13" d="M313.4,73l-5.5,10.7l5.9,11.8c-8.8,1.1-14.4-3.6-15.1-10.1C297.9,78.2,303.8,71.3,313.4,73z"/>
	<path class="st13" d="M330.6,83.9c0,6.4-4.5,11.6-10,11.6c-5.6,0-10-5.2-10-11.6s4.5-11.6,10-11.6
		C326.1,72.2,330.6,77.5,330.6,83.9z M320.8,85.7c0.8,0,1.3-0.3,1.3-1.7c0-1.3-0.6-2.4-1.3-2.4c-0.7,0-1.2,1.1-1.3,2.4
		C319.5,84.8,320.1,85.7,320.8,85.7z"/>
	<path class="st13" d="M346.5,71.9l-10.7,24.2l-7.5-24.2l6.7,0.2l1.6,5.8l1.9-6H346.5z"/>
	<path class="st13" d="M344.2,85.7c-1.1-6.3,2.5-14.3,8.9-13.8c5.4,0.5,9.4,6.1,8.1,11.4l-8.4,4.5c0,0,3.5,1.7,8.1,0.6
		c0.6,4.2,0.8,6.3,0.8,6.3C354.9,97.7,345.5,93.1,344.2,85.7z M354.6,80.9c0,0-1.1-1.7-2.4-1.2c-1.6,0.6-1.1,2.9-1.1,2.9L354.6,80.9
		z"/>
	<path class="st13" d="M362,72.5h4.9c6.4,0,6.9,5.3,6.6,7.9l-5.4-0.1l0.7,15.4l-6.8,0L362,72.5z"/>
</g>
</svg>
